<svg viewBox="0 0 80 80" fill="none" xmlns="http://www.w3.org/2000/svg">
  <path
    d="M19.6814 29.236C19.5059 25.5567 22.3142 20.8262 22.3142 16.9717C21.8929 14.4488 23.8357 10.5184 24.9473 9L26.1758 9.26279L30.6519 16.4461C31.0029 16.9134 32.994 16.9717 38.1114 16.9717C43.026 16.9717 46.1855 16.9717 48.1162 15.9205C48.9938 14.1685 51.6267 9.78839 52.6799 9.26279C53.733 8.73718 56.8925 19.0742 57.419 21.8774C57.8403 24.12 58.7647 28.7688 59.1743 30.8128C59.0749 34.1846 58.79 40.6465 58.3624 43.2927C59.234 43.6258 60.3402 44.1286 61.7221 44.8686C66.8286 47.6032 67.6263 49.8009 68.3132 52.5415C69.0001 55.2821 67.7864 59.8414 63.7737 61.7395C63.4742 61.8811 63.1841 62.0099 62.9033 62.1259C63.4351 65.8826 63.7167 75.6993 63.7737 76.4958C54.5879 78.4814 32.9641 79.027 20.186 74.8222C20.0602 73.5255 20.0786 66.9363 20.186 65.1143C19.8563 65.0251 19.5125 64.9213 19.1548 64.8023C14.9423 63.4007 13.187 59.0206 13.5381 56.2173C13.8891 53.4141 14.4157 51.1364 19.1548 47.8076C20.742 46.6927 21.9539 45.9893 22.8523 45.5611C21.0057 40.6238 19.8237 32.2206 19.6814 29.236ZM60.1391 52.1438C61.3505 52.2594 61.7579 52.8049 62.2146 53.2804C62.7818 53.871 62.7736 56.0706 61.9315 57.7542C61.4084 55.9215 60.7576 53.9753 60.1391 52.1438ZM21.8481 54.4063C20.4222 54.7286 20.1099 55.647 19.6814 56.2173C19.1727 56.8944 19.4831 59.2068 20.6127 60.7847C20.9063 58.6213 21.3229 56.4159 21.8481 54.4063Z"
    fill="#9797C4" fill-opacity="1.000000" fill-rule="evenodd"/>
  <path
    d="M20.1746 72.8149C20.394 72.8149 20.5507 72.6268 20.5507 72.4388C20.5683 70.8257 20.5914 67.2244 20.628 66.0306C21.5592 66.2383 22.4385 66.3095 23.1703 66.3095C24.7757 66.3095 25.9443 65.6401 26.3844 64.5674C26.8223 63.4999 26.4601 62.2217 25.4112 61.1728C24.5173 60.279 23.4166 60.1026 22.4474 60.2274C22.0522 60.2783 21.6732 60.3794 21.3281 60.5054C21.2986 60.3525 21.1959 60.253 21.1049 60.1352C21.3322 58.7095 21.655 57.3357 22.1189 55.592C22.2972 55.551 22.4941 55.5244 22.7114 55.5154C23.002 55.5033 23.2277 55.2579 23.2156 54.9674C23.2034 54.6769 22.9581 54.4512 22.6676 54.4633C22.297 54.4787 21.9346 54.5783 21.5721 54.6517C21.1209 54.7983 20.7365 55.0247 20.4198 55.3171C19.8763 55.8189 19.571 56.4791 19.4427 57.1603C19.2341 58.2683 19.4063 60.2225 20.4776 60.8818L20.1932 61.0682C19.9216 61.2459 19.8157 61.6282 20.1041 61.838C20.3924 62.0477 20.9001 61.6649 20.9001 61.6649C21.33 61.4221 21.9261 61.1793 22.5594 61.0977C23.3395 60.9973 24.1401 61.1427 24.7906 61.7933C25.6723 62.6749 25.8366 63.5905 25.5725 64.2343C25.3106 64.8728 24.5486 65.4319 23.1703 65.4319C21.3635 65.4319 19.4785 64.984 17.943 64.0085C16.1899 62.8948 14.6354 60.9464 14.127 57.5568C13.7341 54.9378 14.9816 52.5807 16.7898 50.6612C18.5385 48.8049 21.669 46.9598 23.29 46.1974C23.5582 46.0713 23.9472 45.6676 23.5657 45.4133C21.936 44.285 19.3598 32.8145 20.7388 26.0136C21.0835 24.3525 21.4909 23.2243 21.8357 22.2214C22.2431 21.0931 22.5878 20.1216 22.6818 18.7426C22.8699 16.3921 23.8728 10.8448 25.5338 9.52856C25.6592 9.43454 25.8159 9.43454 25.9099 9.52856C27.4769 10.8448 29.0126 14.2296 29.6708 15.6399C30.799 18.0531 33.8704 17.9278 38.5087 17.7084L39.7623 17.6457C44.5261 17.4263 47.1273 17.3323 48.6943 15.8907C49.0078 15.6086 49.2898 15.0445 49.6972 14.2296C50.418 12.788 51.421 10.8135 52.8626 10.0613C53.0193 9.96732 53.2073 9.99866 53.3327 10.1554C55.4639 12.5686 56.8428 19.1814 58.3159 26.8911C59.9456 35.4784 58.3159 42.8434 58.3159 42.8434C58.3159 42.8434 58.0862 43.7876 58.545 43.9325C60.1885 44.4514 62.848 45.6981 64.8716 47.3835C66.8978 49.0711 68.4203 51.2607 68.3459 53.908C68.2496 57.3341 66.9412 59.4556 65.3351 60.7725C63.9289 61.9254 62.1125 62.5975 60.3173 62.8154C58.9491 62.9815 58.1253 62.5182 57.7883 61.916C57.4486 61.3087 57.5014 60.3799 58.2704 59.3985C58.8378 58.6743 59.6151 58.4334 60.4015 58.4391C61.1906 58.4449 61.8921 58.7233 62.6177 58.9956C63.0663 59.0069 63.2373 58.3797 62.8323 58.168C62.7877 58.1447 62.7408 58.1213 62.6917 58.0978C63.2473 57.0905 63.3941 55.6832 63.0211 54.5059C62.8116 53.8451 62.429 53.2265 61.829 52.7939C61.224 52.3576 60.4415 52.142 59.4947 52.2171C59.2048 52.2401 58.9885 52.4937 59.0115 52.7836C59.0345 53.0735 59.2881 53.2898 59.5779 53.2668C59.7087 53.2565 59.8328 53.2533 59.9506 53.2566C59.9426 53.3454 59.9634 53.4392 60.0173 53.5217C60.035 53.5396 60.6948 54.7308 61.4651 57.683C61.1318 57.6107 60.774 57.5643 60.4079 57.5616C59.4307 57.5546 58.3593 57.8622 57.5796 58.8573C56.6647 60.025 56.4592 61.3375 57.0225 62.3444C57.5887 63.3563 58.8294 63.88 60.423 63.6865C61.0624 63.6089 61.8084 63.4629 62.5912 63.2119C62.8819 65.0536 63.1511 68.3165 63.3685 70.799C63.4013 71.0332 63.5656 71.2005 63.7627 71.2005L63.7955 71.2005C64.0255 71.1671 64.1898 70.9663 64.1569 70.7321C63.936 68.1593 63.66 64.8277 63.3609 62.9339C64.2169 62.5883 65.0891 62.109 65.8914 61.4511C67.7021 59.9665 69.1199 57.6025 69.2231 53.9326C69.3082 50.9031 67.56 48.4806 65.4332 46.7092C63.3804 44.9995 60.735 43.735 59.0002 43.1576C59.0295 43.1203 59.0526 43.0778 59.068 43.0314C59.0994 42.9687 60.729 35.5097 59.068 26.7657C57.595 18.9307 56.1847 12.2238 53.8969 9.65393C53.5521 9.24649 52.9566 9.15247 52.4865 9.4032C50.8255 10.2494 49.7599 12.3805 49.0078 13.9162C48.6943 14.543 48.3809 15.1698 48.1929 15.3578C46.8453 16.6115 44.338 16.7055 39.7623 16.9249L38.5087 16.9875C34.0707 17.1738 31.2955 17.2903 30.3916 15.3578C29.2633 12.9133 27.9157 10.218 26.4114 8.96442C26.0353 8.61969 25.4398 8.61969 25.0323 8.96442C22.9952 10.5628 22.0551 16.7055 21.867 18.7426C21.773 19.9962 21.4596 20.9051 21.0521 22.0334C20.7074 23.0676 20.3 24.2272 19.9239 25.9196C18.6786 31.9722 20.5161 42.7614 22.5581 45.5771C20.7937 46.4564 17.8681 48.2367 16.151 50.0595C14.2531 52.0743 12.8095 54.6898 13.2591 57.687C13.8037 61.3177 15.496 63.4937 17.4724 64.7492C18.2472 65.2415 19.0593 65.5884 19.8535 65.828C19.8115 67.0798 19.7857 70.7547 19.7672 72.4701C19.7672 72.6268 19.9552 72.8149 20.1746 72.8149ZM60.8988 53.4644C61.1385 53.9767 61.575 55.0313 62.0682 56.7978C62.2179 56.1718 62.217 55.4547 62.0172 54.824C61.8336 54.2446 61.4581 53.7238 60.8988 53.4644ZM20.4776 57.3552C20.3813 57.8666 20.4138 58.4164 20.541 58.9214C20.7192 58.0137 20.939 57.0827 21.2111 56.0235C20.8161 56.3503 20.5801 56.8108 20.4776 57.3552Z"
    fill="#363636" fill-opacity="1.000000" fill-rule="evenodd"/>
  <path
    d="M50.2967 34.2775C47.2385 34.2775 44.7593 31.7983 44.7593 28.7401C44.7593 25.6819 47.2385 23.2027 50.2967 23.2027C53.3549 23.2027 55.8341 25.6819 55.8341 28.7401C55.8341 31.7983 53.3549 34.2775 50.2967 34.2775Z"
    fill="#FFFFFF" fill-opacity="1.000000" fill-rule="nonzero"/>
  <path
    d="M50.2965 34.5327C53.4863 34.5327 56.0891 31.9299 56.0891 28.7402C56.0891 25.5504 53.4863 22.9476 50.2965 22.9476C47.1068 22.9476 44.504 25.5504 44.504 28.7402C44.504 31.9299 47.1068 34.5327 50.2965 34.5327ZM50.2965 23.4835C53.2056 23.4835 55.5787 25.8567 55.5787 28.7657C55.5787 31.6747 53.2056 34.0479 50.2965 34.0479C47.3875 34.0479 45.0143 31.6747 45.0143 28.7657C45.0143 25.8311 47.3875 23.4835 50.2965 23.4835Z"
    fill="#363636" fill-opacity="1.000000" fill-rule="nonzero"/>
  <path
    d="M29.5869 34.2775C26.5287 34.2775 24.0495 31.7983 24.0495 28.7401C24.0495 25.6819 26.5287 23.2027 29.5869 23.2027C32.6451 23.2027 35.1243 25.6819 35.1243 28.7401C35.1243 31.7983 32.6451 34.2775 29.5869 34.2775Z"
    fill="#FFFFFF" fill-opacity="1.000000" fill-rule="nonzero"/>
  <path
    d="M29.5869 34.5327C32.7766 34.5327 35.3794 31.9299 35.3794 28.7402C35.3794 25.5504 32.7766 22.9476 29.5869 22.9476C26.3971 22.9476 23.7943 25.5504 23.7943 28.7402C23.7943 31.9299 26.3971 34.5327 29.5869 34.5327ZM29.5869 23.4835C32.4958 23.4835 34.869 25.8567 34.869 28.7657C34.869 31.6747 32.4958 34.0479 29.5869 34.0479C26.6778 34.0479 24.3046 31.6747 24.3046 28.7657C24.3046 25.8311 26.6778 23.4835 29.5869 23.4835Z"
    fill="#363636" fill-opacity="1.000000" fill-rule="nonzero"/>
  <path
    d="M27.1861 28.4879C27.1861 30.1357 28.5219 31.4715 30.1697 31.4715C31.8175 31.4715 33.1533 30.1357 33.1533 28.4879C33.1533 26.8401 31.8175 25.5043 30.1697 25.5043C28.5219 25.5043 27.1861 26.8401 27.1861 28.4879Z"
    fill="#363636" fill-opacity="1.000000" fill-rule="evenodd"/>
  <path
    d="M46.9628 28.4879C46.9628 30.1357 48.2986 31.4715 49.9464 31.4715C51.5942 31.4715 52.93 30.1357 52.93 28.4879C52.93 26.8401 51.5942 25.5043 49.9464 25.5043C48.2986 25.5043 46.9628 26.8401 46.9628 28.4879Z"
    fill="#363636" fill-opacity="1.000000" fill-rule="evenodd"/>
  <path
    d="M31.0515 25.8841C31.0515 25.8841 32.0273 26.0283 31.8851 26.5856C31.743 27.1429 31.1901 27.0825 30.835 26.8884C30.4632 26.687 30.3536 26.4796 30.509 26.1677C30.6235 25.858 31.0515 25.8841 31.0515 25.8841Z"
    fill="#FFFFFF" fill-opacity="1.000000" fill-rule="nonzero"/>
  <path
    d="M50.8282 25.8841C50.8282 25.8841 51.8041 26.0283 51.6619 26.5856C51.5197 27.1429 50.9668 27.0825 50.6118 26.8884C50.2399 26.687 50.1303 26.4796 50.2858 26.1677C50.4003 25.858 50.8282 25.8841 50.8282 25.8841Z"
    fill="#FFFFFF" fill-opacity="1.000000" fill-rule="nonzero"/>
  <path
    d="M39.1035 34.4442C39.1035 34.4442 39.4169 33.6606 40.1377 33.9114C40.8585 34.1621 41.2346 35.2277 40.6078 35.9798C40.0569 36.6226 39.6741 36.9459 39.3856 37.0852L39.3856 39.0958C40.4019 39.0266 40.9963 38.762 41.0153 38.762C41.0466 38.7306 41.1093 38.7306 41.1406 38.7306C41.266 38.7306 41.36 38.7933 41.4227 38.9187C41.4854 39.0754 41.4227 39.2634 41.266 39.3261C41.2033 39.3574 39.4482 40.1409 36.7529 39.4514C36.5963 39.4201 36.4709 39.2321 36.5336 39.0754C36.5649 38.9187 36.7529 38.7933 36.9097 38.856C37.599 39.0305 38.2203 39.1006 38.7587 39.1108L38.7587 37.0916C38.1584 36.8064 37.3484 35.8315 37.3484 35.1336C37.3484 34.5068 37.5992 34.0994 38.132 33.9114C38.8528 33.6293 39.1035 34.4442 39.1035 34.4442Z"
    fill="#363636" fill-opacity="1.000000" fill-rule="evenodd"/>
  <path
    d="M18.1781 29.3655C18.1781 23.9374 22.5784 19.5371 28.0064 19.5371C33.3589 19.5371 37.712 23.8158 37.8322 29.1394C38.7481 28.8149 40.0236 28.6548 41.3463 29.2C41.4346 23.8483 45.8005 19.5371 51.1732 19.5371C56.6013 19.5371 61.0016 23.9374 61.0016 29.3655C61.0016 34.7935 56.6013 39.1938 51.1732 39.1938C46.0933 39.1938 41.9134 35.3397 41.3983 30.396C39.988 29.5928 38.574 29.9122 37.7915 30.2936C37.3239 35.2864 33.1215 39.1938 28.0064 39.1938C22.5784 39.1938 18.1781 34.7935 18.1781 29.3655ZM28.0064 37.7898C32.6591 37.7898 36.4307 34.0181 36.4307 29.3655C36.4307 24.7129 32.6591 20.9412 28.0064 20.9412C23.3538 20.9412 19.5822 24.7129 19.5822 29.3655C19.5822 34.0181 23.3538 37.7898 28.0064 37.7898ZM51.1732 37.7898C55.8258 37.7898 59.5975 34.0181 59.5975 29.3655C59.5975 24.7129 55.8258 20.9412 51.1732 20.9412C46.5206 20.9412 42.749 24.7129 42.749 29.3655C42.749 34.0181 46.5206 37.7898 51.1732 37.7898Z"
    fill="#363636" fill-opacity="1.000000" fill-rule="evenodd"/>
</svg>
